<svg width="14" height="14" viewBox="0 0 14 14" fill="none" xmlns="http://www.w3.org/2000/svg">
<circle cx="7" cy="7" r="7" fill="#2B2C34"/>
<path d="M6 10.3167V9.48336C5.41111 9.2778 4.93056 8.91802 4.55833 8.40402C4.18611 7.89025 4 7.30558 4 6.65002C4 6.23336 4.07911 5.84314 4.23733 5.47936C4.39578 5.11536 4.60978 4.79869 4.87933 4.52936C5.14867 4.2598 5.46533 4.0458 5.82933 3.88736C6.19311 3.72914 6.58056 3.65002 6.99167 3.65002C7.40278 3.65002 7.79167 3.72914 8.15833 3.88736C8.525 4.0458 8.84444 4.2598 9.11667 4.52936C9.38889 4.79869 9.60422 5.11536 9.76267 5.47936C9.92089 5.84314 10 6.23336 10 6.65002C10 7.30558 9.81244 7.88758 9.43733 8.39602C9.06244 8.90425 8.58333 9.26391 8 9.47502V10.3167H7.33333V9.63336C7.27778 9.64447 7.22222 9.65002 7.16667 9.65002H6.99167C6.93611 9.65002 6.882 9.64869 6.82933 9.64602C6.77644 9.64313 6.72222 9.63891 6.66667 9.63336V10.3167H6ZM7 9.00002C7.64444 9.00002 8.19444 8.77225 8.65 8.31669C9.10556 7.86114 9.33333 7.31114 9.33333 6.66669C9.33333 6.02225 9.10556 5.47225 8.65 5.01669C8.19444 4.56114 7.64444 4.33336 7 4.33336C6.35556 4.33336 5.80556 4.56114 5.35 5.01669C4.89444 5.47225 4.66667 6.02225 4.66667 6.66669C4.66667 7.31114 4.89444 7.86114 5.35 8.31669C5.80556 8.77225 6.35556 9.00002 7 9.00002ZM5.66667 6.00002H8.33333V5.33336H5.66667V6.00002ZM6.75 8.66669L7.75 7.66669L7.33333 7.25002L7.75 6.83336L7.25 6.33336L6.25 7.33336L6.66667 7.75002L6.25 8.16669L6.75 8.66669Z" fill="#FFFFFE"/>
</svg>
