<svg width="14" height="14" viewBox="0 0 14 14" fill="none" xmlns="http://www.w3.org/2000/svg">
<circle cx="7" cy="7" r="7" fill="#2B2C34"/>
<path d="M9.80776 8.9045L8.00001 6.41875V4H8.50001V3.5H5.50001V4H6.00001V6.41875L4.19226 8.9045C4.08322 9.05436 4.01776 9.23147 4.00313 9.41622C3.98851 9.60098 4.02528 9.78618 4.10938 9.95133C4.19349 10.1165 4.32164 10.2552 4.47966 10.352C4.63769 10.4488 4.81942 10.5 5.00476 10.5H8.99501C9.18034 10.5 9.36207 10.4488 9.5201 10.352C9.67812 10.2552 9.80628 10.1165 9.89038 9.95133C9.97448 9.78618 10.0113 9.60098 9.99663 9.41622C9.982 9.23147 9.91655 9.05436 9.80751 8.9045H9.80776ZM6.50001 6.58125V4H7.50001V6.58125L8.16826 7.5H5.83176L6.50001 6.58125ZM8.99526 10H5.00501C4.91195 9.9999 4.82074 9.97409 4.74143 9.92542C4.66212 9.87676 4.5978 9.80712 4.55556 9.72421C4.51333 9.64129 4.49483 9.54832 4.50209 9.45555C4.50936 9.36278 4.54212 9.27383 4.59676 9.1985L5.46826 8H8.53176L9.40351 9.1985C9.45814 9.27383 9.4909 9.36278 9.49817 9.45555C9.50544 9.54832 9.48694 9.64129 9.4447 9.72421C9.40247 9.80712 9.33815 9.87676 9.25884 9.92542C9.17952 9.97409 9.08831 9.9999 8.99526 10Z" fill="#FFFFFE"/>
</svg>
