<svg width="14" height="14" viewBox="0 0 14 14" fill="none" xmlns="http://www.w3.org/2000/svg">
<circle cx="7" cy="7" r="7" fill="#2B2C34"/>
<path d="M8.75 6V4.5H8.25V6C8.25 6.33152 8.1183 6.64946 7.88388 6.88388C7.64946 7.1183 7.33152 7.25 7 7.25C6.66848 7.25 6.35054 7.1183 6.11612 6.88388C5.8817 6.64946 5.75 6.33152 5.75 6V4H7.1465L6.57325 4.57325C6.52638 4.62013 6.50005 4.68371 6.50005 4.75C6.50005 4.81629 6.52638 4.87987 6.57325 4.92675L6.8965 5.25L6.32325 5.82325L6.67675 6.17675L7.42675 5.42675C7.47362 5.37987 7.49995 5.31629 7.49995 5.25C7.49995 5.18371 7.47362 5.12013 7.42675 5.07325L7.1035 4.75L7.92675 3.92675C7.9617 3.89179 7.9855 3.84725 7.99515 3.79876C8.00479 3.75027 7.99984 3.70001 7.98092 3.65434C7.962 3.60866 7.92997 3.56962 7.88886 3.54215C7.84776 3.51468 7.79944 3.50001 7.75 3.5H5.5C5.4337 3.5 5.37011 3.52634 5.32322 3.57322C5.27634 3.62011 5.25 3.6837 5.25 3.75V6C5.25075 6.42039 5.4027 6.82648 5.6781 7.1441C5.9535 7.46173 6.33396 7.66969 6.75 7.73V10H5.5V10.5H8.5V10H7.25V7.73C7.66604 7.66969 8.0465 7.46173 8.3219 7.1441C8.5973 6.82648 8.74925 6.42039 8.75 6Z" fill="#FFFFFE"/>
</svg>
