<svg width="14" height="14" viewBox="0 0 14 14" fill="none" xmlns="http://www.w3.org/2000/svg">
<circle cx="7" cy="7" r="7" fill="#2B2C34"/>
<g clip-path="url(#clip0_595_1813)">
<path d="M6.876 3.03304C6.91377 3.01147 6.95651 3.00012 7 3.00012C7.04349 3.00012 7.08623 3.01147 7.124 3.03304L8.999 4.10454C9.03726 4.1264 9.06907 4.15798 9.0912 4.19609C9.11332 4.2342 9.12499 4.27748 9.125 4.32154V6.31904L10.874 7.31904C10.9121 7.34081 10.9438 7.37224 10.9659 7.41016C10.9881 7.44807 10.9998 7.49115 11 7.53504V9.67804C11 9.72211 10.9883 9.76539 10.9662 9.80349C10.9441 9.8416 10.9123 9.87318 10.874 9.89504L8.999 10.9665C8.96123 10.9881 8.91849 10.9995 8.875 10.9995C8.83151 10.9995 8.78877 10.9881 8.751 10.9665L7 9.96654L5.249 10.967C5.21123 10.9886 5.16849 11 5.125 11C5.08151 11 5.03877 10.9886 5.001 10.967L3.126 9.89554C3.08774 9.87368 3.05593 9.8421 3.0338 9.80399C3.01168 9.76589 3.00001 9.72261 3 9.67854V7.53554C3.00001 7.49148 3.01168 7.4482 3.0338 7.41009C3.05593 7.37198 3.08774 7.3404 3.126 7.31854L4.875 6.31904V4.32154C4.87501 4.27748 4.88668 4.2342 4.9088 4.19609C4.93093 4.15798 4.96274 4.1264 5.001 4.10454L6.876 3.03304ZM5.125 6.75204L3.754 7.53554L5.125 8.31904L6.496 7.53554L5.125 6.75204ZM6.75 7.96654L5.375 8.75204V10.319L6.75 9.53354V7.96654ZM7.25 9.53354L8.625 10.319V8.75204L7.25 7.96654V9.53354ZM7.504 7.53554L8.875 8.31904L10.246 7.53554L8.875 6.75204L7.504 7.53554ZM8.625 6.31904V4.75204L7.25 5.53804V7.10504L8.625 6.31904ZM6.75 7.10504V5.53804L5.375 4.75204V6.31904L6.75 7.10504ZM5.629 4.32154L7 5.10504L8.371 4.32154L7 3.53804L5.629 4.32154ZM10.5 7.96654L9.125 8.75204V10.319L10.5 9.53354V7.96654ZM4.875 10.319V8.75204L3.5 7.96654V9.53354L4.875 10.319Z" fill="#FFFFFE"/>
</g>
<defs>
<clipPath id="clip0_595_1813">
<rect width="8" height="8" fill="white" transform="translate(3 3)"/>
</clipPath>
</defs>
</svg>
